<svg width="1920px" height="895px" style="" version="1.1" xmlns="http://www.w3.org/2000/svg"><g class="leaflet-zoom-hide"><g class="layer" transform="translate(0,448)"><path class="node" d="M414,70m0,3a3,3 0 1,1 0,-6a3,3 0 1,1 0,6z" style="fill: rgb(178, 99, 255); stroke: rgb(178, 99, 255); opacity: 0.8;"></path><path class="node" d="M213,61m0,3a3,3 0 1,1 0,-6a3,3 0 1,1 0,6z" style="fill: rgb(178, 99, 255); stroke: rgb(178, 99, 255); opacity: 0.8;"></path><path class="node" d="M212,59m0,3a3,3 0 1,1 0,-6a3,3 0 1,1 0,6z" style="fill: rgb(178, 99, 255); stroke: rgb(178, 99, 255); opacity: 0.8;"></path><path class="node" d="M470,50m0,3a3,3 0 1,1 0,-6a3,3 0 1,1 0,6z" style="fill: rgb(178, 99, 255); stroke: rgb(178, 99, 255); opacity: 0.8;"></path><path class="node" d="M469,50m0,3a3,3 0 1,1 0,-6a3,3 0 1,1 0,6z" style="fill: rgb(178, 99, 255); stroke: rgb(178, 99, 255); opacity: 0.8;"></path><path class="node" d="M418,44m0,3a3,3 0 1,1 0,-6a3,3 0 1,1 0,6z" style="fill: rgb(178, 99, 255); stroke: rgb(178, 99, 255); opacity: 0.8;"></path><path class="node" d="M487,37m0,26a26,26 0 1,1 0,-52a26,26 0 1,1 0,52z" style="fill: rgb(178, 99, 255); stroke: rgb(178, 99, 255); opacity: 0.8;"></path><path class="node" d="M489,37m0,7.1124104232345875a7.1124104232345875,7.1124104232345875 0 1,1 0,-14.224820846469175a7.1124104232345875,7.1124104232345875 0 1,1 0,14.224820846469175z" style="fill: rgb(178, 99, 255); stroke: rgb(178, 99, 255); opacity: 0.8;"></path><path class="node" d="M410,28m0,7.1124104232345875a7.1124104232345875,7.1124104232345875 0 1,1 0,-14.224820846469175a7.1124104232345875,7.1124104232345875 0 1,1 0,14.224820846469175z" style="fill: rgb(178, 99, 255); stroke: rgb(178, 99, 255); opacity: 0.8;"></path><path class="node" d="M436,25m0,7.1124104232345875a7.1124104232345875,7.1124104232345875 0 1,1 0,-14.224820846469175a7.1124104232345875,7.1124104232345875 0 1,1 0,14.224820846469175z" style="fill: rgb(178, 99, 255); stroke: rgb(178, 99, 255); opacity: 0.8;"></path><path class="node" d="M909,-58m0,3a3,3 0 1,1 0,-6a3,3 0 1,1 0,6z" style="fill: rgb(178, 99, 255); stroke: rgb(178, 99, 255); opacity: 0.8;"></path><path class="node" d="M889,-82m0,10.267973926628464a10.267973926628464,10.267973926628464 0 1,1 0,-20.53594785325693a10.267973926628464,10.267973926628464 0 1,1 0,20.53594785325693z" style="fill: rgb(178, 99, 255); stroke: rgb(178, 99, 255); opacity: 0.8;"></path></g></g></svg>